<svg xmlns="http://www.w3.org/2000/svg" width="38" height="43" fill="none" viewBox="0 0 38 43"><path fill="#fff" stroke="#144746" stroke-linecap="round" stroke-linejoin="round" stroke-width="1.5" d="M31.704 9.459v24.96a5.933 5.933 0 0 1-5.93 5.93h-18.9a5.933 5.933 0 0 1-5.93-5.93V6.707a5.933 5.933 0 0 1 5.93-5.93h15.318l9.512 8.682Z"/><path stroke="#144746" stroke-linecap="round" stroke-linejoin="round" stroke-width="1.5" d="M9.864 22.589h13.578M9.864 27.5H26.23M9.864 32.411h15.145M9.864 12.008h14.538M9.864 17.295h16.062"/><path fill="#EDAF3A" d="M22.142 1.08c-.13-.115-.34-.028-.34.145l-.094 5.518c-.036 2.275 1.149 3.055 3.424 3.055l6.283-.014c.101 0 .152-.13.08-.195l-9.346-8.5-.007-.008Z"/><path stroke="#144746" stroke-linecap="round" stroke-linejoin="round" d="m5.198 11.77.65.65 1.517-1.524M5.198 17.05l.65.65 1.517-1.517M5.198 22.343l.65.65 1.517-1.516M5.198 27.254l.65.65 1.517-1.516M5.198 32.173l.65.65 1.517-1.517"/><path fill="#fff" stroke="#144746" stroke-linecap="round" stroke-linejoin="round" stroke-width="1.5" d="M26.136 19.577h8.695v17.846a4.096 4.096 0 0 1-4.095 4.095h-.498a4.096 4.096 0 0 1-4.095-4.095V19.577h-.007Z"/><path fill="#fff" stroke="#144746" stroke-linecap="round" stroke-linejoin="round" stroke-width="1.5" d="M34.68 16.233h-8.393a1.9 1.9 0 0 0-1.9 1.9v.231a1.9 1.9 0 0 0 1.9 1.9h8.392a1.9 1.9 0 0 0 1.9-1.9v-.231a1.9 1.9 0 0 0-1.9-1.9Z"/><path fill="#EDAF3A" d="M26.807 25.781h1.654c.838 0 1.524.564 1.524 1.264v8.32c0 .7-.679 1.264-1.524 1.264h-1.654"/><path stroke="#144746" stroke-linecap="round" stroke-linejoin="round" stroke-width="1.5" d="M26.807 25.781h1.654c.838 0 1.524.564 1.524 1.264v8.32c0 .7-.679 1.264-1.524 1.264h-1.654M27.103 17.577v1.343M29.328 17.577v1.343M31.56 17.577v1.343M33.784 17.577v1.343"/></svg>