<svg xmlns="http://www.w3.org/2000/svg" xmlns:xlink="http://www.w3.org/1999/xlink" width="68" height="68" viewBox="0 0 68 68">
  <defs>
    <clipPath id="clip-View_Health_Record">
      <rect width="68" height="68"/>
    </clipPath>
  </defs>
  <g id="View_Health_Record" data-name="View Health Record" clip-path="url(#clip-View_Health_Record)">
    <g id="_18-medical-record-folder" data-name="18-medical-record-folder" transform="translate(5 5)">
      <path id="Path_32317" data-name="Path 32317" d="M32,14h9.138v1.828H32Z" transform="translate(-2.585 -1.034)" fill="#ec8046"/>
      <path id="Path_32318" data-name="Path 32318" d="M32,18h9.138v1.828H32Z" transform="translate(-2.585 -1.379)" fill="#ec8046"/>
      <path id="Path_32319" data-name="Path 32319" d="M32,22h9.138v1.828H32Z" transform="translate(-2.585 -1.724)" fill="#ec8046"/>
      <path id="Path_32320" data-name="Path 32320" d="M32,26h9.138v1.828H32Z" transform="translate(-2.585 -2.068)" fill="#ec8046"/>
      <path id="Path_32321" data-name="Path 32321" d="M20.28,14.972a3.278,3.278,0,0,0,2.062,0,2.741,2.741,0,0,0,2.624,1.994h.914a.914.914,0,0,1,.914.914v2.741h1.828V17.88a2.741,2.741,0,0,0-2.741-2.741h-.914a.914.914,0,0,1-.914-.914v-.349a3.624,3.624,0,0,0,.914-2.392V9.655a3.655,3.655,0,0,0-7.311,0v1.828a3.624,3.624,0,0,0,.914,2.392v.349a.914.914,0,0,1-.914.914h-.914A2.741,2.741,0,0,0,14,17.88v2.741h1.828V17.88a.914.914,0,0,1,.914-.914h.914a2.741,2.741,0,0,0,2.624-1.994Zm-.8-5.317a1.828,1.828,0,0,1,3.655,0v1.828a1.828,1.828,0,0,1-3.655,0Z" transform="translate(-1.034 -0.345)" fill="#ec8046"/>
      <path id="Path_32322" data-name="Path 32322" d="M32.914,11.483h7.311a.914.914,0,0,0,.914-.914V6.914A.914.914,0,0,0,40.224,6H32.914A.914.914,0,0,0,32,6.914v3.655A.914.914,0,0,0,32.914,11.483Zm.914-3.655h5.483V9.655H33.828Z" transform="translate(-2.585 -0.345)" fill="#ec8046"/>
      <path id="Path_32323" data-name="Path 32323" d="M56.829,25.759a5.488,5.488,0,0,0-5.483-5.483H45.863V6.569a.914.914,0,0,0-.914-.914H42.208V2.914A.914.914,0,0,0,41.294,2H10.224a.914.914,0,0,0-.914.914v20.1H6.569A4.575,4.575,0,0,0,2,27.587V52.26a4.575,4.575,0,0,0,4.569,4.569h38.38A4.569,4.569,0,0,0,49.5,52.455L56.8,26A.914.914,0,0,0,56.829,25.759ZM44.036,7.483v20.1H42.208V7.483Zm-32.9-3.655H40.38V27.587h-17.9l-4.3-4.3a.914.914,0,0,0-.646-.268h-6.4ZM47.691,52.26A2.741,2.741,0,0,1,44.949,55H6.569A2.741,2.741,0,0,1,3.828,52.26V27.587a2.741,2.741,0,0,1,2.741-2.741H17.157l4.3,4.3a.914.914,0,0,0,.646.268H44.949a2.741,2.741,0,0,1,2.741,2.741Zm1.828-6.749V32.156a4.577,4.577,0,0,0-3.655-4.478V22.1h5.483A3.655,3.655,0,0,1,55,25.642Z"/>
      <path id="Path_32324" data-name="Path 32324" d="M36.19,40.483H31.621V35.914A.914.914,0,0,0,30.707,35H23.4a.914.914,0,0,0-.914.914v4.569H17.914A.914.914,0,0,0,17,41.4v7.311a.914.914,0,0,0,.914.914h4.569V54.19a.914.914,0,0,0,.914.914h7.311a.914.914,0,0,0,.914-.914V49.621H36.19a.914.914,0,0,0,.914-.914V41.4A.914.914,0,0,0,36.19,40.483Zm-.914,7.311H30.707a.914.914,0,0,0-.914.914v4.569H24.311V48.707a.914.914,0,0,0-.914-.914H18.828V42.311H23.4a.914.914,0,0,0,.914-.914V36.828h5.483V41.4a.914.914,0,0,0,.914.914h4.569Z" transform="translate(-1.293 -2.844)" fill="#ec8046"/>
    </g>
  </g>
</svg>
